<?xml version="1.0"?><svg id="_レイヤー_2" xmlns="http://www.w3.org/2000/svg" viewBox="0 0 715.88 122.98"><g id="_レイヤー_1-2"><g><path d="m707.04,2.11v20.64c-1.83,0-3.59,0-5.35,0-25.48,0-50.96-.05-76.43.03-11.27.04-16.71,5.67-15.97,16.16.43,6.07,4.22,10.64,10.23,11.92,2.58.55,5.27.76,7.92.77,16.82.07,33.64-.08,50.46.1,5.12.06,10.38.33,15.33,1.54,15.51,3.78,23.63,16.39,22.57,34.16-1.23,20.53-12.4,32.48-33.73,33.08-30.45.85-60.94.24-91.41.23-.29,0-.57-.25-1.05-.48v-20.17h5.62c26.98,0,53.95.02,80.93-.03,2.98,0,6.06,0,8.92-.71,8.21-2.06,12.26-8.93,11.06-18.07-.96-7.29-6.74-12.21-15.2-12.28-18.15-.17-36.31.19-54.45-.23-6.38-.15-13.07-1-19.01-3.19-14.43-5.31-21.29-18.87-19.32-36.03,1.56-13.62,12.14-24.2,26.56-26.56,2.13-.35,4.29-.82,6.43-.83,28.45-.06,56.91-.04,85.89-.04Z"></path><path d="m294.9,1.98c8.33,0,15.78-.19,23.21.17,1.42.07,3.16,2.04,4.05,3.55,16.19,27.3,32.26,54.67,48.37,82.02,1.06,1.8,2.18,3.57,3.62,5.92,1.3-2.08,2.28-3.56,3.18-5.09,16.17-27.51,32.37-54.99,48.42-82.57,1.71-2.93,3.5-4.28,7.02-4.1,6.07.31,12.17.09,18.97.09-1.25,2.26-2.06,3.83-2.97,5.34-21.33,35.46-42.67,70.92-64.01,106.37-.51.85-.98,1.74-1.53,2.57-5.83,8.8-14.32,8.89-19.86-.1-8.81-14.29-17.33-28.75-25.97-43.15-13.43-22.37-26.85-44.75-40.27-67.12-.59-.98-1.13-1.99-2.22-3.91Z"></path><path d="m202.83,1.98c-5.71,10.59-10.97,20.36-16.24,30.13-14.81,27.5-29.61,55.01-44.46,82.49-3.93,7.28-9.67,10.07-15.86,7.22-2.52-1.16-5.11-3.43-6.4-5.86-17.38-32.83-34.54-65.78-51.76-98.7-2.52-4.83-5.09-9.63-8.06-15.26,8.29,0,15.85-.16,23.38.17,1.19.05,2.63,2.14,3.36,3.59,13.94,27.55,27.79,55.14,41.67,82.73.74,1.47,1.52,2.92,2.62,5.03,1.25-2.21,2.25-3.88,3.15-5.59,14.38-27.16,28.83-54.29,43.03-81.55,1.81-3.48,3.82-4.71,7.64-4.47,5.64.34,11.31.09,17.91.09Z"></path><path d="m485.09,100.14h85.82v20.42h-105.99V2.38h20.17v97.75Z"></path><path d="m228.88,90.88c3.28-5.67,5.94-10.61,8.99-15.29.67-1.03,2.74-1.57,4.17-1.6,9.15-.14,18.31-.07,27.47-.07,1.6,0,3.2,0,5.48,0-.98-1.79-1.59-2.91-2.21-4.03-10.47-18.87-19.91-36.2-30.58-54.95l-3.8-5.66s2.71-5.42,4.22-6.64c4.04-3.24,8.92-3.63,12.8-.45,1.51,1.24,2.88,2.82,3.89,4.5,22.4,37.14,44.74,74.31,67.08,111.48.39.65.65,1.39,1.24,2.68-7.87,0-15.14.16-22.39-.14-1.36-.06-3.07-1.67-3.9-3.01-4.82-7.76-9.54-15.6-14.05-23.54-1.42-2.51-3.07-3.36-5.92-3.34-17.14.13-34.28.06-52.49.06Z"></path><path d="m0,1.98c7.31,0,15.13-.22,22.24.18,1.54.09,3.5,2.13,4.36,3.75,14.18,26.7,28.2,53.48,42.28,80.23,1.21,2.3,2.51,4.55,4.08,7.38,3.13-5.5,5.9-10.38,8.99-15.81,3.4,6.41,6.83,12.5,9.81,18.52.53,1.08,1.2,3.74-.11,5.52-2.61,4.17-5.72,10.43-8.92,14.6-6.7,8.73-16.2,8.93-21.02.08C41.2,78.8,0,1.98,0,1.98Z"></path><path d="m170.81,120.85c19.57-32.61,38.61-64.33,58.13-96.83,3.55,6.66,6.88,12.66,9.88,18.81.49,1.01-.04,2.91-.71,4.04-13.97,23.78-28,47.53-42.17,71.19-.81,1.36-2.99,2.59-4.59,2.67-6.47.3-12.96.12-20.54.12Z"></path><path d="m566.96,22.52h-65.32V2.31h65.32v20.22Z"></path><path d="m566,68.68h-64.3v-16.78h64.3v16.78Z"></path></g></g></svg>
